<?xml version="1.0" encoding="UTF-8"?>
<svg version="1.1" xmlns="http://www.w3.org/2000/svg" width="512" height="512">
<path d="M0 0 C1.01201477 0.00054382 2.02402954 0.00108765 3.06671143 0.00164795 C19.59887291 0.04238923 35.523992 0.95817716 51.75 4.375 C52.78125 4.58930664 53.8125 4.80361328 54.875 5.02441406 C101.10680927 14.94980561 143.72188765 37.60106665 177.75 70.375 C178.7390332 71.32318604 178.7390332 71.32318604 179.74804688 72.29052734 C189.23630305 81.43497479 197.9762044 90.73234009 205.75 101.375 C206.60806152 102.52605017 207.46613451 103.67709177 208.32421875 104.828125 C214.36236829 113.01930614 219.72095521 121.53304105 224.75 130.375 C225.11448242 131.00680176 225.47896484 131.63860352 225.85449219 132.28955078 C240.78473018 158.37464001 250.26385054 187.71085114 254.75 217.375 C254.92660156 218.49745117 255.10320312 219.61990234 255.28515625 220.77636719 C256.9420586 232.38947743 257.14873513 243.90679945 257.125 255.625 C257.12418427 257.14302216 257.12418427 257.14302216 257.12335205 258.69171143 C257.08261077 275.22387291 256.16682284 291.148992 252.75 307.375 C252.42854004 308.921875 252.42854004 308.921875 252.10058594 310.5 C242.17519439 356.73180927 219.52393335 399.34688765 186.75 433.375 C186.11787598 434.03435547 185.48575195 434.69371094 184.83447266 435.37304688 C175.69002521 444.86130305 166.39265991 453.6012044 155.75 461.375 C154.59894983 462.23306152 153.44790823 463.09113451 152.296875 463.94921875 C144.10569386 469.98736829 135.59195895 475.34595521 126.75 480.375 C126.11819824 480.73948242 125.48639648 481.10396484 124.83544922 481.47949219 C98.75035999 496.40973018 69.41414886 505.88885054 39.75 510.375 C38.62754883 510.55160156 37.50509766 510.72820312 36.34863281 510.91015625 C24.73552257 512.5670586 13.21820055 512.77373513 1.5 512.75 C-0.01802216 512.74918427 -0.01802216 512.74918427 -1.56671143 512.74835205 C-18.09887291 512.70761077 -34.023992 511.79182284 -50.25 508.375 C-51.796875 508.05354004 -51.796875 508.05354004 -53.375 507.72558594 C-99.60680927 497.80019439 -142.22188765 475.14893335 -176.25 442.375 C-176.90935547 441.74287598 -177.56871094 441.11075195 -178.24804688 440.45947266 C-187.73630305 431.31502521 -196.4762044 422.01765991 -204.25 411.375 C-205.10806152 410.22394983 -205.96613451 409.07290823 -206.82421875 407.921875 C-212.86236829 399.73069386 -218.22095521 391.21695895 -223.25 382.375 C-223.61448242 381.74319824 -223.97896484 381.11139648 -224.35449219 380.46044922 C-239.28473018 354.37535999 -248.76385054 325.03914886 -253.25 295.375 C-253.51490234 293.69132324 -253.51490234 293.69132324 -253.78515625 291.97363281 C-255.4420586 280.36052257 -255.64873513 268.84320055 -255.625 257.125 C-255.62445618 256.11298523 -255.62391235 255.10097046 -255.62335205 254.05828857 C-255.58261077 237.52612709 -254.66682284 221.601008 -251.25 205.375 C-251.03569336 204.34375 -250.82138672 203.3125 -250.60058594 202.25 C-240.67519439 156.01819073 -218.02393335 113.40311235 -185.25 79.375 C-184.61787598 78.71564453 -183.98575195 78.05628906 -183.33447266 77.37695312 C-174.19002521 67.88869695 -164.89265991 59.1487956 -154.25 51.375 C-153.09894983 50.51693848 -151.94790823 49.65886549 -150.796875 48.80078125 C-142.60569386 42.76263171 -134.09195895 37.40404479 -125.25 32.375 C-124.61819824 32.01051758 -123.98639648 31.64603516 -123.33544922 31.27050781 C-97.25035999 16.34026982 -67.91414886 6.86114946 -38.25 2.375 C-37.12754883 2.19839844 -36.00509766 2.02179687 -34.84863281 1.83984375 C-23.23552257 0.1829414 -11.71820055 -0.02373513 0 0 Z " fill="#000000" transform="translate(255.25,-0.375)"/>
<path d="M0 0 C14.34074308 12.7836046 20.35252787 29.06263841 26.29296875 46.80078125 C27.25830707 49.63389344 28.22838867 52.46535493 29.1986084 55.29679871 C29.86517938 57.24309004 30.53029107 59.18988175 31.19396973 61.13716125 C34.80806881 71.72978446 38.5760312 82.26626131 42.35546875 92.80078125 C42.97675899 94.53552193 43.59793718 96.27030275 44.21899414 98.00512695 C44.51502029 98.83159225 44.81104645 99.65805756 45.11604309 100.50956726 C45.68867184 102.10864628 46.26093906 103.70785482 46.83280945 105.3072052 C48.1320615 108.93792523 49.439225 112.56523279 50.76855469 116.18505859 C51.12287064 117.15677254 51.12287064 117.15677254 51.48434448 118.14811707 C52.11238105 119.86908473 52.74520356 121.58830378 53.37841797 123.30737305 C54.23046875 125.98828125 54.23046875 125.98828125 54.23046875 128.98828125 C54.89046875 128.98828125 55.55046875 128.98828125 56.23046875 128.98828125 C56.34132813 128.1684375 56.4521875 127.34859375 56.56640625 126.50390625 C57.33463322 122.43682227 58.55407742 118.660019 59.85546875 114.73828125 C62.74437267 105.82258693 65.21557075 96.82161669 67.61914062 87.76464844 C69.69478467 79.9500548 71.86292766 72.16821935 74.1015625 64.39892578 C75.88546512 58.20654188 77.62357038 52.0029062 79.33642578 45.79052734 C80.43402947 41.82078779 81.55234699 37.85815534 82.69921875 33.90234375 C85.52070269 24.1635277 88.20220921 14.41641308 90.58203125 4.55908203 C90.86433594 3.39675049 90.86433594 3.39675049 91.15234375 2.2109375 C91.3131543 1.53812744 91.47396484 0.86531738 91.63964844 0.17211914 C92.38690872 -2.58996484 93.32562037 -5.29717362 94.23046875 -8.01171875 C100.83046875 -8.01171875 107.43046875 -8.01171875 114.23046875 -8.01171875 C118.15853506 0.3737147 121.62609755 8.87918069 124.99131584 17.49988365 C126.63308874 21.7040527 128.28569275 25.90396155 129.93798828 30.10400391 C130.28570125 30.98825767 130.63341421 31.87251143 130.99166393 32.78356075 C134.62065018 42.00059119 138.30900735 51.19353431 142.00526047 60.38375473 C143.13149654 63.18422776 144.25666411 65.98512774 145.38150024 68.78616333 C148.42722993 76.36985319 151.47334798 83.95337656 154.52807617 91.53344727 C156.43661099 96.26980359 158.3401673 101.00813319 160.24035835 105.74784279 C160.95578194 107.52962604 161.67306796 109.31066271 162.3922863 111.09091759 C163.38206683 113.54140585 164.36548795 115.99435329 165.34741211 118.44799805 C165.64177155 119.17232529 165.93613098 119.89665253 166.2394104 120.64292908 C167.40931241 123.58273427 168.23046875 125.79272019 168.23046875 128.98828125 C168.89046875 128.98828125 169.55046875 128.98828125 170.23046875 128.98828125 C170.64232422 127.05275391 170.64232422 127.05275391 171.0625 125.078125 C172.15371601 120.172913 173.5037521 115.37105574 174.91796875 110.55078125 C180.94401616 89.68290605 186.36126612 68.69822292 191.37207031 47.56445312 C192.22835835 43.99707338 193.11179772 40.43748282 194.00390625 36.87890625 C194.28419678 35.74912354 194.5644873 34.61934082 194.85327148 33.45532227 C195.37953902 31.33684705 195.91244161 29.22000407 196.45336914 27.10522461 C197.81382969 21.57972647 198.63352814 16.68312033 198.23046875 10.98828125 C196.41883608 8.31396636 195.35285798 8.02907766 192.23046875 6.98828125 C188.68028152 6.79416409 185.13192817 6.67087044 181.578125 6.5625 C177.72381525 5.90137569 176.4857456 5.14010025 174.23046875 1.98828125 C173.58324169 -0.86939077 173.94624772 -3.02739789 174.23046875 -6.01171875 C174.89046875 -7.00171875 175.55046875 -7.99171875 176.23046875 -9.01171875 C178.78638748 -9.31949599 181.10236998 -9.43162436 183.66186523 -9.41577148 C184.42787048 -9.42263474 185.19387573 -9.42949799 185.98309326 -9.43656921 C188.52276999 -9.45491528 191.06183353 -9.45098866 193.6015625 -9.4453125 C195.36271874 -9.44987076 197.12387318 -9.45517526 198.88502502 -9.4611969 C202.5797548 -9.47014347 206.27426862 -9.46768762 209.96899414 -9.45776367 C214.7085225 -9.44627526 219.44730569 -9.46647532 224.18673611 -9.49568081 C227.82498425 -9.5140105 231.46305281 -9.51375679 235.10133553 -9.50804329 C236.84887805 -9.50788966 238.59643243 -9.51396829 240.3439312 -9.52633476 C242.78632457 -9.5411816 245.22732843 -9.53061542 247.66967773 -9.51342773 C248.39445816 -9.5230957 249.11923859 -9.53276367 249.86598206 -9.54272461 C253.12616616 -9.49458134 254.79190003 -9.43443119 257.18959045 -7.12342834 C258.43294951 -4.60093051 258.4979039 -3.16560915 258.16796875 -0.38671875 C258.09449219 0.38929688 258.02101563 1.1653125 257.9453125 1.96484375 C257.23046875 3.98828125 257.23046875 3.98828125 255.6171875 5.234375 C252.41822732 6.24484851 249.45622923 6.31225446 246.10546875 6.42578125 C237.14274995 6.89105308 229.76971383 8.06415039 222.80078125 14 C218.42819927 19.53642842 216.30493263 26.25559298 214.29296875 32.92578125 C214.03773438 33.75279541 213.7825 34.57980957 213.51953125 35.43188477 C211.47678488 42.08287894 209.50664761 48.75563652 207.5625 55.43603516 C206.29456592 59.77939065 205.00417802 64.11568048 203.703125 68.44921875 C203.45131973 69.2882222 203.19951447 70.12722565 202.94007874 70.99165344 C200.45536468 79.25895321 197.95096706 87.5202795 195.4453125 95.78125 C195.2327393 96.48210913 195.02016609 97.18296825 194.80115128 97.90506554 C192.80915337 104.47232922 190.81657951 111.03941802 188.82299805 117.60620117 C182.82556852 137.36279654 176.87514629 157.1273788 171.23046875 176.98828125 C163.31046875 176.98828125 155.39046875 176.98828125 147.23046875 176.98828125 C143.00773589 166.99340974 139.03776076 156.91257867 135.10546875 146.80078125 C134.4113684 145.01877046 133.71719333 143.23678877 133.02294922 141.45483398 C130.75599206 135.63373605 128.49273538 129.81120347 126.23046875 123.98828125 C125.83077881 122.95952881 125.43108887 121.93077637 125.01928711 120.87084961 C120.14539719 108.32428861 115.27816122 95.7751638 110.41944885 83.22271729 C108.47976706 78.21197724 106.53740652 73.20230463 104.58959961 68.19471741 C103.84289769 66.27406478 103.097603 64.35287426 102.35302734 62.43139648 C101.51081348 60.25805781 100.66627871 58.08561634 99.81884766 55.91430664 C99.28976807 54.54520142 99.28976807 54.54520142 98.75 53.1484375 C98.45198486 52.38152588 98.15396973 51.61461426 97.84692383 50.82446289 C97.23046875 48.98828125 97.23046875 48.98828125 97.23046875 46.98828125 C96.57046875 46.98828125 95.91046875 46.98828125 95.23046875 46.98828125 C95.11832031 47.96152344 95.00617188 48.93476563 94.890625 49.9375 C94.25293221 54.36807859 92.9934035 58.53368623 91.66796875 62.80078125 C91.40765869 63.65389893 91.14734863 64.5070166 90.87915039 65.38598633 C90.0019681 68.25520478 89.11674172 71.12185847 88.23046875 73.98828125 C87.56360431 76.15228281 86.89694384 78.31634724 86.23046875 80.48046875 C85.19603739 83.83892912 84.16132751 87.19729997 83.125 90.55517578 C81.06429557 97.24160898 79.04777202 103.93818409 77.09130859 110.65576172 C75.37029026 116.55128671 73.58573732 122.42671669 71.79296875 128.30078125 C66.84871956 144.50373481 61.99533327 160.73168465 57.23046875 176.98828125 C48.98046875 176.98828125 40.73046875 176.98828125 32.23046875 176.98828125 C31.73289062 175.29703125 31.2353125 173.60578125 30.72265625 171.86328125 C27.61663307 161.78294751 23.95182673 151.90167571 20.35546875 141.98828125 C19.57083785 139.81887058 18.78650271 137.64935292 18.00244141 135.47973633 C16.75162329 132.01903342 15.50043396 128.55846732 14.24801636 125.0983429 C11.21183038 116.7096568 8.18747117 108.3167908 5.16942215 99.92156601 C3.70221462 95.84080877 2.2338268 91.76047606 0.76552391 87.68011284 C-0.42044788 84.38411694 -1.60587623 81.08792797 -2.78997803 77.79125977 C-7.1863955 65.55338386 -11.59444 53.32051844 -16.19140625 41.15625 C-16.5027652 40.32647141 -16.81412415 39.49669281 -17.13491821 38.64176941 C-23.6114774 21.54534274 -23.6114774 21.54534274 -36.76953125 9.73828125 C-41.93354015 7.65502296 -47.35290141 6.79230254 -52.828125 5.89453125 C-55.76953125 4.98828125 -55.76953125 4.98828125 -57.1640625 3.1171875 C-58.0544704 -0.01360156 -58.00464378 -2.77892151 -57.76953125 -6.01171875 C-55.76953125 -9.01171875 -55.76953125 -9.01171875 -52.890625 -9.67578125 C-34.58047504 -11.53847143 -15.15905903 -11.8580914 0 0 Z " fill="#FCFCFC" transform="translate(155.76953125,173.01171875)"/>
</svg>
